<?xml version="1.0"?>
<svg version="1.1" xmlns="http://www.w3.org/2000/svg" width="200" height="40" style=""><path fill="#8b32c7" d="M22.42,17.06l2.94,0c3.64,0,6.16,1.54,6.16,4.844c0,2.436-1.148,3.92-3.36,4.62c2.632,0.756,4.004,2.324,4.004,4.48c0,4.116-2.744,5.796-7.28,5.796l-8.904,0l0-2.38l2.1-0.84l0-13.16l-2.1-0.84l0-2.38z M22.42,25.124l1.624,0c2.044,0,3.136-0.868,3.136-2.604c0-1.456-1.036-2.1-2.38-2.1l-2.38,0l0,4.704z M22.42,33.44l2.324,0c1.96,0,2.996-0.896,2.996-2.436c0-2.044-1.176-2.94-3.696-2.94l-1.624,0l0,5.376z M41.58628,33.58l0-13.16l-2.66,0l-0.7,2.66l-2.576,0l0-6.02l16.24,0l0,6.02l-2.604,0l-0.7-2.66l-2.66,0l0,13.16l2.66,0.84l0,2.38l-9.66,0l0-2.38z M58.70856,30.724l0.42,2.352s1.12,0.588,2.744,0.588c1.792,0,3.388-0.784,3.388-2.268c0-3.276-9.464-1.82-9.464-8.736c0-3.864,3.052-5.936,7.112-5.936c3.164,0,6.16,1.12,6.16,1.12l-0.14,5.096l-2.576,0l-0.7-2.38s-1.26-0.42-2.464-0.42c-1.988,0-2.968,0.868-2.968,1.988c0,3.248,9.436,1.96,9.436,8.54c0,4.2-3.248,6.496-7.56,6.496c-3.164,0-6.244-1.064-6.244-1.064l0-5.376l2.856,0z"/><path fill="#" d=""/></svg>
